# xmcd
#
# Track frame offsets:
#	150
#	17350
#	33025
#	51067
#	69455
#	85647
#	99052
#	113415
#	131875
#	146235
#	162252
#	179452
#	195125
#	213167
#	231557
#	247747
#	261152
#	275515
#	293975
#	308337
#
# Disc length: 4323
#
# Revision: 1
# Processed by: cddbd v1.5.1PL0 Copyright (c) Steve Scherf et al.
# Submitted via: audiograbber 1.82.02
# Normalized: r0:DSETVAR1
#
DISCID=0310e114
DTITLE=Various Artist - THC0012
DYEAR=2000
DGENRE=Country
TTITLE0=Montgomery, John Michael (GV) - Little Girl, The
TTITLE1=McEntire, Reba (GV) - We're So Good Together
TTITLE2=Heatherly, Eric (GV) - Swimming In Champagne
TTITLE3=Chesney, Kenny (GV) - I Lost It
TTITLE4=Tennison, Chalee (GV) - Makin' Up With You
TTITLE5=Clark Family Experience, The (GV) - Meanwhile Back At The Ranch
TTITLE6=Rogers, Kenny (GV) - He Will, She Knows
TTITLE7=O'Neal, Jamie (GV) - There Is No Arizona
TTITLE8=Wariner, Steve and Garth Brooks (GV) - Katie Wants A Fast One
TTITLE9=Lonestar (GV) - Tell Her
TTITLE10=Montgomery, John Michael - Little Girl
TTITLE11=McEntire, Reba - We're So Good Together
TTITLE12=Heatherly, Eric - Swimming In Champagne
TTITLE13=Chesney, Kenny - I Lost It
TTITLE14=Tennison, Chalee - Makin' Up With You
TTITLE15=Clark Family Experience, The - Meanwhile Back At The Ranch
TTITLE16=Rogers, Kenny - He Will, She Knows
TTITLE17=O'Neal, Jamie - There Is No Arizona
TTITLE18=Wariner, Steve and Garth Brooks - Katie Wants A Fast One
TTITLE19=Lonestar - Tell Her
EXTD=
EXTT0=
EXTT1=
EXTT2=
EXTT3=
EXTT4=
EXTT5=
EXTT6=
EXTT7=
EXTT8=
EXTT9=
EXTT10=
EXTT11=
EXTT12=
EXTT13=
EXTT14=
EXTT15=
EXTT16=
EXTT17=
EXTT18=
EXTT19=
PLAYORDER=
